<?xml version="1.0" standalone="no"?>
<!DOCTYPE svg PUBLIC "-//W3C//DTD SVG 20010904//EN"
 "http://www.w3.org/TR/2001/REC-SVG-20010904/DTD/svg10.dtd">
<svg version="1.0" xmlns="http://www.w3.org/2000/svg"
 width="800.000000pt" height="600.000000pt" viewBox="0 0 800.000000 600.000000"
 preserveAspectRatio="xMidYMid meet">

<g transform="translate(0.000000,600.000000) scale(0.100000,-0.100000)"
fill="#000000" stroke="none">
<path d="M4160 5328 c-118 -8 -259 -41 -375 -87 -278 -112 -522 -336 -660
-607 -92 -179 -136 -367 -136 -579 0 -354 128 -659 378 -907 144 -141 302
-241 478 -302 84 -28 81 -30 -120 -45 -417 -33 -824 -129 -1101 -261 -444
-211 -699 -529 -859 -1070 -31 -103 -115 -434 -115 -452 0 -5 11 -8 25 -8 19
0 26 7 31 27 31 139 99 400 125 479 225 704 654 1038 1524 1188 303 52 422 61
815 61 393 0 512 -9 815 -61 870 -150 1299 -484 1524 -1188 26 -79 94 -340
125 -478 5 -21 12 -28 31 -28 14 0 25 3 25 8 0 18 -84 349 -115 452 -187 632
-520 981 -1121 1173 -221 71 -539 134 -774 153 -41 3 -82 8 -90 11 -8 2 23 17
70 32 450 145 783 530 865 999 20 112 20 322 0 435 -45 256 -157 476 -339 666
-273 283 -623 416 -1026 389z m321 -63 c172 -32 355 -108 489 -203 91 -64 228
-200 293 -290 151 -210 227 -450 227 -717 0 -344 -125 -641 -369 -877 -105
-102 -187 -162 -306 -221 -179 -89 -343 -127 -550 -127 -207 0 -371 38 -550
127 -119 59 -201 119 -306 221 -244 236 -369 533 -369 877 0 344 125 641 369
877 180 176 372 278 616 328 117 24 340 26 456 5z"/>
</g>
</svg>
